<?xml version="1.0" standalone="yes"?>
<svg xmlns="http://www.w3.org/2000/svg" width="522" height="522" viewBox="0 0 522 522" style="isolation:isolate">
<style>
    path {
        fill: #161514;
    }
    @media (prefers-color-scheme: dark) {
        path {
            fill: #f6f3eb;
        }
    }
</style>
<defs>
    <clipPath id="_clipPath_gi6olpoFRo1sGuw9fAP8pgbysstdAc55">
        <rect width="522" height="522" />
    </clipPath>
</defs>
<g clip-path="url(#_clipPath_gi6olpoFRo1sGuw9fAP8pgbysstdAc55)">
<g>
<path d="M224 117C223.834 120.655 222.567 121.315 219 121C221.336 112.392 210.376 104.862 205.405 98.5803C198.651 90.0452 186.81 82.7273 176 80.3904C171.481 79.4135 166.591 80.1617 162 79.9606C157.495 79.7634 152.483 78.004 148.09 79.7384C138.086 83.6876 128.295 94.5374 121 102C119.265 111.503 110.449 119.688 107.495 129C103.416 141.855 109.141 154.049 106.66 167C105.755 171.723 102.401 175.422 101.121 180C99.855 184.528 100.067 189.42 99.1204 194C98.3347 197.801 96.3642 201.244 95.4699 205C94.3186 209.835 95.2478 215.075 94.9105 220C94.2693 229.363 92.7462 238.843 95.7492 248C97.9997 254.863 102.582 259.3 106.656 265.015C109.578 269.114 112.281 274.09 116.3 277.232C121.005 280.91 127.367 281.395 132.83 283.331C137.662 285.044 142.824 286.295 147.561 288.184C149.891 289.114 151.661 291.159 154.171 291.657C157.933 292.405 162.119 290.803 165.985 291.055C169.124 291.259 171.908 292.722 175.039 292.946C183.764 293.569 192.338 292.015 201 292C203.901 288.044 209.422 286.361 212.833 291C214.018 292.611 213.76 294.204 214.333 296C216.089 301.496 218.493 306.324 219.833 312C220.441 314.576 219.417 317.349 220.5 319.833C221.314 321.702 221.912 319.201 222 319C223.481 323.875 223.171 329.163 224.687 334C227.315 342.387 230.999 350.556 233.644 359C236.886 369.356 244.064 378.411 248.811 388.011C251.468 393.384 252.445 399.868 255.178 404.91C257.115 408.485 261.006 410.528 263.146 414.004C264.872 416.807 265.3 420.172 267.005 423C270.727 429.176 276.527 434.177 281.24 439.572C287.353 446.569 292.553 454.42 300.015 460.098C304.448 463.471 309.013 464.283 314 466.348C318.056 468.028 321.768 470.499 326 471.755C339.742 475.835 356.531 474.068 369.83 468.87C381.899 464.152 386.601 449.027 396 441C396.095 436.455 398.779 434.706 400.901 430.946C403.938 425.566 405.553 419.628 408 414C405.193 409.808 408.573 403.456 409.544 399C410.416 394.999 409.627 391.026 409.749 387C409.842 383.955 410.907 381.06 410.921 378C410.934 374.98 409.962 372.022 410.168 369C410.798 359.756 413.039 350.339 413.377 341C413.559 335.961 411.181 331.078 411.179 326C411.175 315.39 412.766 304.519 412.726 294C412.676 280.789 407.034 267.961 412 255C410.085 253.723 410.915 253.723 409 255C403.022 235.848 403.581 216.556 400.714 197C399.504 188.751 394.875 180.378 396 172L394 173C395.419 159.284 388.782 147.118 384.384 134.826C383.235 131.613 383.378 128.061 382.191 124.888C380.552 120.508 378.547 116.755 378 112C373.843 107.623 373.681 101.327 371.138 96.0146C368.724 90.9729 364.372 85.7054 361.161 81.0394C357.49 75.7029 352.298 71.7755 348.174 66.8302C344.004 61.8315 341.555 56.4145 335.999 52.5447C316.332 38.8448 291.294 39.1758 271 51.6837C267.167 54.0463 262.731 55.6291 259.093 58.2485C255.462 60.8628 252.51 65.0915 249.566 68.4553C245.254 73.3837 242.212 79.3701 238.914 84.9498C237.245 87.7733 234.739 89.9401 233.471 93.0146C230.493 100.23 229.613 111.524 224 117z"/>
</g>
</g>
</svg>
